<svg width="24" height="24" viewBox="0 0 24 24" fill="none"
  xmlns="http://www.w3.org/2000/svg">
  <path d="M0 12C0 5.37258 5.37258 0 12 0C18.6274 0 24 5.37258 24 12C24 18.6274 18.6274 24 12 24C5.37258 24 0 18.6274 0 12Z" fill="black" fill-opacity="0.08"/>
  <path d="M16.4714 8.47132C16.7318 8.21097 16.7318 7.78886 16.4714 7.52851C16.2111 7.26816 15.789 7.26816 15.5286 7.52851L12 11.0571L8.47145 7.52851C8.2111 7.26816 7.78899 7.26816 7.52864 7.52851C7.26829 7.78886 7.26829 8.21097 7.52864 8.47132L11.0572 11.9999L7.52864 15.5285C7.26829 15.7889 7.26829 16.211 7.52864 16.4713C7.78899 16.7317 8.2111 16.7317 8.47145 16.4713L12 12.9427L15.5286 16.4713C15.789 16.7317 16.2111 16.7317 16.4714 16.4713C16.7318 16.211 16.7318 15.7889 16.4714 15.5285L12.9429 11.9999L16.4714 8.47132Z" fill="#808089"/>
</svg>
