<svg width="24" height="24" viewBox="0 0 24 24" fill="none"
  xmlns="http://www.w3.org/2000/svg">
  <path fill-rule="evenodd" clip-rule="evenodd" d="M2 5C2 4.44772 2.44772 4 3 4H21C21.5523 4 22 4.44772 22 5V9.375C22 9.92728 21.5523 10.375 21 10.375C20.2236 10.375 19.5455 11.0005 19.5455 12C19.5455 12.9995 20.2236 13.625 21 13.625C21.5523 13.625 22 14.0727 22 14.625V19C22 19.5523 21.5523 20 21 20H3C2.44772 20 2 19.5523 2 19V14.625C2 14.0727 2.44772 13.625 3 13.625C3.77644 13.625 4.45455 12.9995 4.45455 12C4.45455 11.0005 3.77644 10.375 3 10.375C2.44772 10.375 2 9.92728 2 9.375V5ZM4 6V8.52038C5.46957 8.96427 6.45455 10.3714 6.45455 12C6.45455 13.6286 5.46957 15.0357 4 15.4796V18H20V15.4796C18.5304 15.0357 17.5455 13.6286 17.5455 12C17.5455 10.3714 18.5304 8.96427 20 8.52038V6H4ZM10.1865 10.707C11.015 10.707 11.6865 10.0355 11.6865 9.20703C11.6865 8.3786 11.015 7.70703 10.1865 7.70703C9.3581 7.70703 8.68652 8.3786 8.68652 9.20703C8.68652 10.0355 9.3581 10.707 10.1865 10.707ZM14.7071 9.29282C14.3166 8.90229 13.6834 8.90229 13.2929 9.29282L9.29292 13.2928C8.90239 13.6833 8.90239 14.3165 9.29292 14.707C9.68344 15.0976 10.3166 15.0976 10.7071 14.707L14.7071 10.707C15.0977 10.3165 15.0977 9.68334 14.7071 9.29282ZM14.3657 16.2928C15.1941 16.2928 15.8657 15.6212 15.8657 14.7928C15.8657 13.9644 15.1941 13.2928 14.3657 13.2928C13.5372 13.2928 12.8657 13.9644 12.8657 14.7928C12.8657 15.6212 13.5372 16.2928 14.3657 16.2928Z" fill="#00AB56"/>
</svg>
