<svg width="24" height="24" viewBox="0 0 24 24" fill="none"
  xmlns="http://www.w3.org/2000/svg">
  <g clip-path="url(#clip0)">
    <path fill-rule="evenodd" clip-rule="evenodd" d="M2 3C2 2.44772 2.44772 2 3 2H20.1429C20.6951 2 21.1429 2.44772 21.1429 3V5.57143C21.1429 5.83665 21.0375 6.091 20.85 6.27854L14.2857 12.8428V19.2857C14.2857 19.6645 14.0717 20.0107 13.7329 20.1801L10.3044 21.8944C9.99437 22.0494 9.62623 22.0329 9.33141 21.8507C9.03659 21.6684 8.85714 21.3466 8.85714 21V12.8428L2.29289 6.27854C2.10536 6.091 2 5.83665 2 5.57143V3ZM4 4V5.15722L10.5642 11.7215C10.7518 11.909 10.8571 12.1634 10.8571 12.4286V19.382L12.2857 18.6677V12.4286C12.2857 12.1634 12.3911 11.909 12.5786 11.7215L19.1429 5.15721V4H4Z" fill="#1A94FF"/>
  </g>
  <defs>
    <clipPath id="clip0">
      <rect width="20" height="20" fill="white" transform="translate(2 2)"/>
    </clipPath>
  </defs>
</svg>
