<svg width="24" height="24" viewBox="0 0 24 24" fill="none" xmlns="http://www.w3.org/2000/svg">
<path fill-rule="evenodd" clip-rule="evenodd" d="M3 3C2.44772 3 2 3.44772 2 4C2 4.55228 2.44772 5 3 5H4.55443L6.0566 16.1337C6.12353 16.6298 6.54701 17 7.04762 17H18.381C18.8568 17 19.2667 16.6647 19.3611 16.1984L20.9801 8.19836C21.0396 7.90433 20.964 7.59911 20.7741 7.3669C20.5841 7.13468 20.3 7 20 7H6.84239L6.41959 3.86629C6.35266 3.37018 5.92918 3 5.42857 3H3ZM7.92176 15L7.11224 9H18.7773L17.5631 15H7.92176Z" fill="#27272A"/>
<path d="M7.5 19C6.67157 19 6 19.6716 6 20.5C6 21.3284 6.67157 22 7.5 22C8.32843 22 9 21.3284 9 20.5C9 19.6716 8.32843 19 7.5 19Z" fill="#27272A"/>
<path d="M17 20.5C17 19.6716 17.6716 19 18.5 19C19.3284 19 20 19.6716 20 20.5C20 21.3284 19.3284 22 18.5 22C17.6716 22 17 21.3284 17 20.5Z" fill="#27272A"/>
</svg>
