<svg width="40" height="40" viewBox="0 0 40 40" fill="none" xmlns="http://www.w3.org/2000/svg">
<circle cx="20" cy="20" r="20" fill="#EFFFF4"/>
<g clip-path="url(#clip0)">
<path fill-rule="evenodd" clip-rule="evenodd" d="M7.5 11.25C7.5 10.5596 8.05964 10 8.75 10H31.25C31.9404 10 32.5 10.5596 32.5 11.25V16.7188C32.5 17.4091 31.9404 17.9688 31.25 17.9688C30.2794 17.9688 29.4318 18.7506 29.4318 20C29.4318 21.2494 30.2794 22.0312 31.25 22.0312C31.9404 22.0312 32.5 22.5909 32.5 23.2812V28.75C32.5 29.4404 31.9404 30 31.25 30H8.75C8.05964 30 7.5 29.4404 7.5 28.75V23.2812C7.5 22.5909 8.05964 22.0312 8.75 22.0312C9.72056 22.0312 10.5682 21.2494 10.5682 20C10.5682 18.7506 9.72056 17.9688 8.75 17.9688C8.05964 17.9688 7.5 17.4091 7.5 16.7188V11.25ZM10 12.5V15.6505C11.837 16.2053 13.0682 17.9642 13.0682 20C13.0682 22.0358 11.837 23.7947 10 24.3495V27.5H30V24.3495C28.163 23.7947 26.9318 22.0358 26.9318 20C26.9318 17.9642 28.163 16.2053 30 15.6505V12.5H10ZM17.7332 18.3838C18.7687 18.3838 19.6082 17.5443 19.6082 16.5088C19.6082 15.4733 18.7687 14.6338 17.7332 14.6338C16.6976 14.6338 15.8582 15.4733 15.8582 16.5088C15.8582 17.5443 16.6976 18.3838 17.7332 18.3838ZM23.3839 16.616C22.8958 16.1279 22.1043 16.1279 21.6161 16.616L16.6161 21.616C16.128 22.1042 16.128 22.8956 16.6161 23.3838C17.1043 23.8719 17.8958 23.8719 18.3839 23.3838L23.3839 18.3838C23.8721 17.8956 23.8721 17.1042 23.3839 16.616ZM22.9571 25.366C23.9926 25.366 24.8321 24.5266 24.8321 23.491C24.8321 22.4555 23.9926 21.616 22.9571 21.616C21.9215 21.616 21.0821 22.4555 21.0821 23.491C21.0821 24.5266 21.9215 25.366 22.9571 25.366Z" fill="#00AB56"/>
</g>
<defs>
<clipPath id="clip0">
<rect width="25" height="25" fill="white" transform="translate(7.5 7.5)"/>
</clipPath>
</defs>
</svg>
