<svg width="32" height="32" viewBox="0 0 32 32" fill="none" xmlns="http://www.w3.org/2000/svg">
<g clip-path="url(#clip0)">
<path fill-rule="evenodd" clip-rule="evenodd" d="M3.97828 3.75977C3.25397 3.75977 2.66681 4.34693 2.66681 5.07124C2.66681 5.79554 3.25397 6.38271 3.97828 6.38271H5.94548V19.2504C4.04943 19.8147 2.66681 21.5711 2.66681 23.6505C2.66681 26.1855 4.72189 28.2406 7.25695 28.2406C9.3363 28.2406 11.0927 26.858 11.657 24.9619H28.0219C28.7462 24.9619 29.3334 24.3748 29.3334 23.6505C29.3334 22.9262 28.7462 22.339 28.0219 22.339H11.657C11.2164 20.8585 10.0489 19.691 8.56843 19.2504V5.07124C8.56843 4.34693 7.98126 3.75977 7.25696 3.75977H3.97828ZM7.25695 21.6833C6.1705 21.6833 5.28975 22.564 5.28975 23.6505C5.28975 24.7369 6.1705 25.6177 7.25695 25.6177C8.34341 25.6177 9.22416 24.7369 9.22416 23.6505C9.22416 22.564 8.34341 21.6833 7.25695 21.6833ZM12.7214 5.94558C11.9971 5.94558 11.4099 6.53274 11.4099 7.25705V18.186C11.4099 18.9103 11.9971 19.4974 12.7214 19.4974H25.8361C26.5604 19.4974 27.1475 18.9103 27.1475 18.186V7.25705C27.1475 6.53274 26.5604 5.94558 25.8361 5.94558H12.7214ZM14.0328 16.8745V8.56852H24.5246V16.8745H14.0328Z" fill="#27272A"/>
</g>
<defs>
<clipPath id="clip0">
<rect width="26.6667" height="26.6667" fill="white" transform="translate(2.66669 2.66699)"/>
</clipPath>
</defs>
</svg>
