<svg width="40" height="40" viewBox="0 0 40 40" fill="none" xmlns="http://www.w3.org/2000/svg">
<circle cx="20" cy="20" r="20" fill="#FFF5EB"/>
<g clip-path="url(#clip0)">
<path fill-rule="evenodd" clip-rule="evenodd" d="M20.0002 10C16.5484 10 13.7502 12.7982 13.7502 16.25C13.7502 19.7018 16.5484 22.5 20.0002 22.5C23.452 22.5 26.2502 19.7018 26.2502 16.25C26.2502 12.7982 23.452 10 20.0002 10ZM11.2502 16.25C11.2502 11.4175 15.1677 7.5 20.0002 7.5C24.8327 7.5 28.7502 11.4175 28.7502 16.25C28.7502 17.8099 28.342 19.2745 27.6266 20.5427L31.5163 27.7389C31.7519 28.1747 31.7078 28.7085 31.4041 29.0998C31.1003 29.4912 30.5941 29.6661 30.1135 29.546L26.8014 28.718L25.2067 31.11C24.9626 31.4762 24.5439 31.687 24.1044 31.6651C23.6648 31.6432 23.2692 31.3917 23.0628 31.0031L19.8733 24.9991C19.7725 24.9977 19.6721 24.9945 19.5722 24.9897L16.9785 30.9177C16.7953 31.3364 16.3982 31.6218 15.9429 31.6618C15.4876 31.7019 15.0468 31.4903 14.7933 31.11L13.1986 28.718L9.8865 29.546C9.42013 29.6626 8.92822 29.5014 8.62129 29.1314C8.31435 28.7615 8.24678 28.2482 8.44749 27.8114L11.9894 20.1031C12.0134 20.0509 12.0405 20.0011 12.0705 19.9539C11.5442 18.8291 11.2502 17.5739 11.2502 16.25ZM22.5105 24.6346C23.8042 24.2478 24.9721 23.5698 25.9383 22.6767L27.9685 26.4328L26.5532 26.079C26.0407 25.9509 25.503 26.1587 25.2099 26.5983L24.2882 27.9809L22.5105 24.6346ZM13.7143 22.3368C14.6399 23.2925 15.7815 24.0378 17.0603 24.4939L15.6048 27.8205L14.7901 26.5983C14.497 26.1587 13.9593 25.9509 13.4468 26.079L11.8064 26.4891L13.7143 22.3368ZM19.1665 16.2083C19.1665 15.7481 19.5396 15.375 19.9998 15.375C20.46 15.375 20.8331 15.7481 20.8331 16.2083C20.8331 16.6686 20.46 17.0417 19.9998 17.0417C19.5396 17.0417 19.1665 16.6686 19.1665 16.2083ZM19.9998 12.875C18.1588 12.875 16.6665 14.3674 16.6665 16.2083C16.6665 18.0493 18.1588 19.5417 19.9998 19.5417C21.8407 19.5417 23.3331 18.0493 23.3331 16.2083C23.3331 14.3674 21.8407 12.875 19.9998 12.875Z" fill="#FC820A"/>
</g>
<defs>
<clipPath id="clip0">
<rect width="25" height="25" fill="white" transform="translate(7.5 7.5)"/>
</clipPath>
</defs>
</svg>
