<svg width="33" height="32" viewBox="0 0 33 32" fill="none" xmlns="http://www.w3.org/2000/svg">
<g clip-path="url(#clip0)">
<path fill-rule="evenodd" clip-rule="evenodd" d="M7.93944 2.66699C7.20306 2.66699 6.60611 3.24913 6.60611 3.96724V8.35877C6.6061 8.36049 6.6061 8.36221 6.6061 8.36393C6.6061 8.36565 6.6061 8.36737 6.60611 8.36909V15.1308L4.81482 16.8777C4.56477 17.1215 4.4243 17.4522 4.4243 17.7971V24.1801C4.4243 24.8982 5.02125 25.4803 5.75763 25.4803H6.6061V28.0003C6.6061 28.7366 7.20305 29.3336 7.93943 29.3336H12.3031C13.0394 29.3336 13.6364 28.7366 13.6364 28.0003V25.4803H19.6969V28.0003C19.6969 28.7366 20.2939 29.3336 21.0303 29.3336H25.3939C26.1303 29.3336 26.7272 28.7366 26.7272 28.0003V25.4803H27.5758C28.3121 25.4803 28.9091 24.8982 28.9091 24.1801V17.7971C28.9091 17.4522 28.7686 17.1215 28.5186 16.8777L26.7273 15.1308V3.96724C26.7273 3.24913 26.1303 2.66699 25.3939 2.66699H7.93944ZM9.27278 9.69727V15.6694C9.27278 16.0143 9.1323 16.345 8.88225 16.5888L7.09096 18.3357V22.8798H26.2424V18.3357L24.4511 16.5888C24.2011 16.345 24.0606 16.0143 24.0606 15.6694V9.69727H9.27278ZM24.0606 7.0306V5.26748H9.27278V7.0306H24.0606ZM24.0605 25.4803H22.3636V26.6669H24.0605V25.4803ZM10.9697 25.4803H9.27277V26.6669H10.9697V25.4803ZM10.3333 13.3337C10.3333 12.045 11.378 11.0003 12.6666 11.0003H20.6666C21.9553 11.0003 23 12.045 23 13.3337V14.667C23 15.9557 21.9553 17.0003 20.6666 17.0003H12.6666C11.378 17.0003 10.3333 15.9557 10.3333 14.667V13.3337ZM12.6666 13.0003C12.4826 13.0003 12.3333 13.1496 12.3333 13.3337V14.667C12.3333 14.8511 12.4826 15.0003 12.6666 15.0003H20.6666C20.8507 15.0003 21 14.8511 21 14.667V13.3337C21 13.1496 20.8507 13.0003 20.6666 13.0003H12.6666ZM5.99998 11.6366C5.99998 10.9003 5.40303 10.3033 4.66665 10.3033C3.93027 10.3033 3.33331 10.9003 3.33331 11.6366V13.8184C3.33331 14.5548 3.93027 15.1518 4.66665 15.1518C5.40303 15.1518 5.99998 14.5548 5.99998 13.8184V11.6366ZM28.6666 10.3033C29.403 10.3033 30 10.9003 30 11.6366V13.8184C30 14.5548 29.403 15.1518 28.6666 15.1518C27.9303 15.1518 27.3333 14.5548 27.3333 13.8184V11.6366C27.3333 10.9003 27.9303 10.3033 28.6666 10.3033ZM11.2122 20.3639C11.2122 20.9664 10.7238 21.4548 10.1213 21.4548C9.51883 21.4548 9.03042 20.9664 9.03042 20.3639C9.03042 19.7614 9.51883 19.273 10.1213 19.273C10.7238 19.273 11.2122 19.7614 11.2122 20.3639ZM23.2121 21.4548C23.8146 21.4548 24.3031 20.9664 24.3031 20.3639C24.3031 19.7614 23.8146 19.273 23.2121 19.273C22.6097 19.273 22.1212 19.7614 22.1212 20.3639C22.1212 20.9664 22.6097 21.4548 23.2121 21.4548Z" fill="#27272A"/>
</g>
<defs>
<clipPath id="clip0">
<rect width="26.6667" height="26.6667" fill="white" transform="translate(3.33331 2.66699)"/>
</clipPath>
</defs>
</svg>
