<svg width="40" height="40" viewBox="0 0 40 40" fill="none" xmlns="http://www.w3.org/2000/svg">
<circle cx="20" cy="20" r="20" fill="#F0F8FF"/>
<g clip-path="url(#clip0)">
<path fill-rule="evenodd" clip-rule="evenodd" d="M20 7.5C13.3326 7.5 7.70482 12.3505 7.50546 18.6323C7.50185 18.6711 7.5 18.7103 7.5 18.75V24.7024C7.5 26.6406 9.00084 28.3333 11 28.3333H14.375C15.0654 28.3333 15.625 27.7737 15.625 27.0833V18.75C15.625 18.0596 15.0654 17.5 14.375 17.5H10.1365C10.9158 13.3189 14.9452 10 20 10C25.0548 10 29.0842 13.3189 29.8635 17.5H25.625C24.9346 17.5 24.375 18.0596 24.375 18.75V27.0833C24.375 27.7737 24.9346 28.3333 25.625 28.3333H29C29.3384 28.3333 29.6626 28.2848 29.9676 28.1948C29.7922 29.2974 28.9339 30 28.0859 30H22.8125C22.1221 30 21.5625 30.5597 21.5625 31.25C21.5625 31.9404 22.1221 32.5 22.8125 32.5H28.0859C30.6307 32.5 32.5 30.2741 32.5 27.7778V18.75C32.5 18.7103 32.4982 18.6711 32.4945 18.6323C32.2952 12.3505 26.6674 7.5 20 7.5ZM30 20H26.875V25.8333H29C29.4871 25.8333 30 25.3951 30 24.7024V20ZM10 20V24.7024C10 25.3951 10.5129 25.8333 11 25.8333H13.125V20H10Z" fill="#0B74E5"/>
</g>
<defs>
<clipPath id="clip0">
<rect width="25" height="25" fill="white" transform="translate(7.5 7.5)"/>
</clipPath>
</defs>
</svg>
