<svg width="33" height="32" viewBox="0 0 33 32" fill="none" xmlns="http://www.w3.org/2000/svg">
<g clip-path="url(#clip0)">
<path fill-rule="evenodd" clip-rule="evenodd" d="M3 6.16426C3 4.2323 4.56531 2.66699 6.49727 2.66699H21.7978C22.5221 2.66699 23.1093 3.25416 23.1093 3.97847V5.07137C23.1093 5.79567 22.5221 6.38284 21.7978 6.38284C21.148 6.38284 20.6086 5.91021 20.5045 5.28995H6.49727C6.01612 5.28995 5.6265 5.67738 5.62298 6.1577L5.62299 6.16429C5.62299 6.46732 5.77667 6.73404 6.01043 6.89087C6.14952 6.98418 6.31697 7.03858 6.49727 7.03858L6.50573 7.03861H26.1695C26.8938 7.03861 27.4809 7.62578 27.4809 8.35008V14.6888H28.3553C29.0796 14.6888 29.6667 15.276 29.6667 16.0003V20.3719C29.6667 21.0962 29.0796 21.6834 28.3553 21.6834H27.4809V28.0222C27.4809 28.7465 26.8938 29.3337 26.1695 29.3337H7.59021C5.05497 29.3337 3.00004 27.2788 3.00004 24.7435V6.18127L3 6.16426ZM24.858 21.6834H22.8908C20.9588 21.6834 19.3935 20.1181 19.3935 18.1861C19.3935 16.2542 20.9588 14.6888 22.8908 14.6888H24.858V9.66156H6.49731C6.19539 9.66156 5.90243 9.62333 5.62299 9.55145V24.7435C5.62299 25.8302 6.50359 26.7108 7.59021 26.7108H24.858V21.6834ZM26.1591 17.3118H22.8908C22.4074 17.3118 22.0165 17.7028 22.0165 18.1861C22.0165 18.6695 22.4074 19.0604 22.8908 19.0604H27.0438V17.3118H26.1798C26.1764 17.3118 26.1729 17.3118 26.1695 17.3118C26.166 17.3118 26.1626 17.3118 26.1591 17.3118Z" fill="#27272A"/>
</g>
<defs>
<clipPath id="clip0">
<rect width="26.6667" height="26.6667" fill="white" transform="translate(3 2.66699)"/>
</clipPath>
</defs>
</svg>
