<svg width="16" height="17" viewBox="0 0 16 17" fill="none"
  xmlns="http://www.w3.org/2000/svg">
  <g clip-path="url(#clip0)">
    <path d="M8.00007 5.07107C7.52668 5.07107 7.14293 5.45483 7.14293 5.92821C7.14293 6.4016 7.52668 6.78536 8.00007 6.78536C8.47346 6.78536 8.85722 6.4016 8.85722 5.92821C8.85722 5.45483 8.47346 5.07107 8.00007 5.07107Z" fill="#808089"/>
    <path d="M7.33346 11.4996C7.33346 11.8678 7.63193 12.1663 8.00012 12.1663C8.36831 12.1663 8.66679 11.8678 8.66679 11.4996L8.66679 8.07105C8.66679 7.70286 8.36831 7.40439 8.00012 7.40439C7.63193 7.40439 7.33346 7.70286 7.33346 8.07105L7.33346 11.4996Z" fill="#808089"/>
    <path fill-rule="evenodd" clip-rule="evenodd" d="M1.33337 8.49969C1.33337 4.81778 4.31815 1.83301 8.00006 1.83301C11.682 1.83301 14.6667 4.81778 14.6667 8.49969C14.6667 12.1816 11.682 15.1664 8.00006 15.1664C4.31815 15.1664 1.33337 12.1816 1.33337 8.49969ZM8.00006 3.16634C5.05453 3.16634 2.66671 5.55416 2.66671 8.49969C2.66671 11.4452 5.05453 13.833 8.00006 13.833C10.9456 13.833 13.3334 11.4452 13.3334 8.49969C13.3334 5.55416 10.9456 3.16634 8.00006 3.16634Z" fill="#808089"/>
  </g>
  <defs>
    <clipPath id="clip0">
      <rect width="13.3333" height="13.3333" fill="white" transform="translate(1.33337 1.83301)"/>
    </clipPath>
  </defs>
</svg>
