<svg width="24" height="24" viewBox="0 0 24 24" fill="none"
  xmlns="http://www.w3.org/2000/svg">
  <path fill-rule="evenodd" clip-rule="evenodd" d="M12.0001 6.5C10.0671 6.5 8.50012 8.067 8.50012 9.99999C8.50012 11.933 10.0671 13.5 12.0001 13.5C13.9331 13.5 15.5001 11.933 15.5001 9.99999C15.5001 8.067 13.9331 6.5 12.0001 6.5ZM10.5001 9.99999C10.5001 9.17157 11.1717 8.5 12.0001 8.5C12.8285 8.5 13.5001 9.17157 13.5001 9.99999C13.5001 10.8284 12.8285 11.5 12.0001 11.5C11.1717 11.5 10.5001 10.8284 10.5001 9.99999Z" fill="#808089"/>
  <path fill-rule="evenodd" clip-rule="evenodd" d="M12.717 20.697L12.0159 20.0154C12.717 20.697 12.7168 20.6972 12.717 20.697L12.7189 20.695L12.723 20.6908L12.7376 20.6757L12.7913 20.6196C12.8376 20.571 12.9046 20.5001 12.9893 20.4093C13.1587 20.2275 13.3991 19.9652 13.687 19.6393C14.2618 18.9885 15.0304 18.0786 15.8013 17.0458C16.5697 16.0163 17.3556 14.8447 17.9534 13.6719C18.5404 12.5204 19 11.265 19 10.0952C19 5.5756 15.3919 3 12 3C8.60804 3 5 5.5756 5 10.0952C5 11.265 5.45958 12.5204 6.04656 13.6719C6.64433 14.8447 7.43021 16.0163 8.19862 17.0458C8.9696 18.0786 9.7382 18.9885 10.313 19.6393C10.6008 19.9652 10.8412 20.2275 11.0106 20.4093C11.0953 20.5001 11.1623 20.571 11.2087 20.6196L11.2624 20.6757L11.277 20.6908L11.2811 20.695L11.2823 20.6963C11.2824 20.6965 11.283 20.697 11.9841 20.0154L11.2823 20.6963L12 21.4345L12.717 20.697ZM7 10.0952C7 6.84344 9.54194 5 12 5C14.458 5 17 6.84344 17 10.0952C17 10.7921 16.7095 11.7082 16.1715 12.7637C15.6443 13.7981 14.9302 14.8693 14.1986 15.8494C13.4696 16.8261 12.7382 17.6923 12.1879 18.3154C12.1226 18.3894 12.0598 18.4599 12 18.5267C11.9402 18.4599 11.8774 18.3894 11.812 18.3154C11.2618 17.6923 10.5304 16.8261 9.80135 15.8494C9.06978 14.8693 8.35566 13.7981 7.82844 12.7637C7.29041 11.7082 7 10.7921 7 10.0952Z" fill="#808089"/>
</svg>
