<svg width="40" height="40" viewBox="0 0 40 40" fill="none" xmlns="http://www.w3.org/2000/svg">
<path d="M0 14.7368C0 6.59791 6.59791 0 14.7368 0H25.2632C33.4021 0 40 6.59791 40 14.7368V25.2632C40 33.4021 33.4021 40 25.2632 40H14.7368C6.59791 40 0 33.4021 0 25.2632V14.7368Z" fill="#A50064"/>
<path d="M27.4569 8C24.3951 8 21.9134 10.4236 21.9134 13.4136C21.9134 16.4038 24.3951 18.8277 27.4569 18.8277C30.5184 18.8277 33 16.4038 33 13.4136C33 10.4236 30.5184 8 27.4569 8ZM27.4569 15.7242C26.1579 15.7242 25.1025 14.6935 25.1025 13.4252C25.1025 12.1566 26.1579 11.126 27.4569 11.126C28.7555 11.126 29.8109 12.1566 29.8109 13.4252C29.8109 14.6935 28.7555 15.7244 27.4569 15.7244V15.7242ZM20.3131 18.8393H17.124V12.0322C17.124 11.5224 16.7064 11.1151 16.1848 11.1151C15.6629 11.1151 15.2452 11.5224 15.2452 12.0322V18.8393H12.0565V12.0322C12.0565 11.5224 11.6391 11.1151 11.1172 11.1151C10.5953 11.1151 10.1777 11.5224 10.1777 12.0322V18.8393H7V12.066C7 9.82354 8.86712 8 11.1632 8C12.1025 8 12.9608 8.30586 13.6565 8.81536C14.4598 8.27179 15.2909 8 16.1498 8C18.446 8 20.3131 9.82354 20.3131 12.066V18.8393ZM27.4569 21.1723C24.3951 21.1723 21.9134 23.596 21.9134 26.5859C21.9134 29.5761 24.3951 32 27.4569 32C30.5184 31.9997 33 29.5758 33 26.5859C33 23.596 30.5184 21.1721 27.4569 21.1721V21.1723ZM16.1498 21.1599C18.446 21.1599 20.3131 22.9834 20.3131 25.2259V31.9992H17.124V25.1921C17.124 24.6823 16.7064 24.275 16.1848 24.275C15.6629 24.275 15.2452 24.6823 15.2452 25.1921V31.9992H12.0565V25.1921C12.0565 24.6823 11.6391 24.275 11.1172 24.275C10.5953 24.275 10.1777 24.6823 10.1777 25.1921V31.9992H7V25.2259C7 22.9834 8.86712 21.1599 11.1632 21.1599C12.1025 21.1599 12.9608 21.4657 13.6565 21.9752C14.4598 21.4317 15.2909 21.1599 16.1498 21.1599ZM27.4569 24.2983C28.7555 24.2983 29.8109 25.3289 29.8109 26.5975C29.8109 27.8659 28.7555 28.8965 27.4569 28.8965C26.1579 28.8965 25.1025 27.8659 25.1025 26.5975C25.1025 25.3289 26.1579 24.2983 27.4569 24.2983Z" fill="white"/>
</svg>
