<svg width="14" height="14" viewBox="0 0 14 14" fill="none"
  xmlns="http://www.w3.org/2000/svg">
  <g clip-path="url(#clip0)">
    <path d="M7.76493 0.613925L9.56434 4.43243L13.5878 5.04581C13.6767 5.05924 13.7602 5.09846 13.8289 5.15905C13.8976 5.21963 13.9487 5.29915 13.9765 5.38861C14.0042 5.47806 14.0075 5.57387 13.986 5.66519C13.9644 5.7565 13.9189 5.83967 13.8546 5.90528L10.9425 8.87522L11.6299 13.0732C11.6451 13.1659 11.6352 13.2612 11.6013 13.3483C11.5675 13.4355 11.511 13.5109 11.4384 13.5662C11.3657 13.6215 11.2798 13.6544 11.1902 13.6612C11.1006 13.668 11.011 13.6485 10.9315 13.6047L7.33331 11.6258L3.7345 13.6065C3.65493 13.6501 3.56533 13.6695 3.4758 13.6626C3.38627 13.6557 3.30036 13.6227 3.22776 13.5673C3.15516 13.512 3.09875 13.4366 3.0649 13.3495C3.03104 13.2624 3.02108 13.1671 3.03614 13.0744L3.7235 8.87886L0.811474 5.90891C0.747128 5.84331 0.701606 5.76014 0.680061 5.66882C0.658517 5.57751 0.661812 5.4817 0.689573 5.39224C0.717334 5.30279 0.768452 5.22327 0.837138 5.16268C0.905823 5.1021 0.989331 5.06287 1.0782 5.04945L5.1017 4.43303L6.9011 0.614531C6.94091 0.530176 7.00242 0.459153 7.07871 0.409474C7.15499 0.359795 7.24301 0.333437 7.33284 0.333374C7.42266 0.333311 7.51072 0.359545 7.58706 0.409117C7.66341 0.458689 7.72502 0.529626 7.76493 0.613925Z" fill="#FFC400"/>
  </g>
  <defs>
    <clipPath id="clip0">
      <rect width="13.334" height="13.3306" fill="white" transform="translate(0.666016 0.333374)"/>
    </clipPath>
  </defs>
</svg>
