<svg width="24" height="24" viewBox="0 0 24 24" fill="none"
  xmlns="http://www.w3.org/2000/svg">
  <path fill-rule="evenodd" clip-rule="evenodd" d="M2.52942 3.45064C2.52942 2.89835 2.97713 2.45064 3.52942 2.45064H9.48639C10.0387 2.45064 10.4864 2.89835 10.4864 3.45064V9.40761C10.4864 9.9599 10.0387 10.4076 9.48639 10.4076H3.52942C2.97713 10.4076 2.52942 9.9599 2.52942 9.40761V3.45064ZM4.52942 4.45064V8.40761H8.48639V4.45064H4.52942Z" fill="#808089"/>
  <path fill-rule="evenodd" clip-rule="evenodd" d="M16.8641 2.29289C17.2546 1.90237 17.8878 1.90237 18.2783 2.29289L21.707 5.72164C22.0975 6.11216 22.0975 6.74533 21.707 7.13585L18.2783 10.5646C17.8878 10.9551 17.2546 10.9551 16.8641 10.5646L13.4353 7.13585C13.0448 6.74533 13.0448 6.11216 13.4353 5.72164L16.8641 2.29289ZM17.5712 4.41421L15.5566 6.42874L17.5712 8.44328L19.5857 6.42875L17.5712 4.41421Z" fill="#808089"/>
  <path fill-rule="evenodd" clip-rule="evenodd" d="M13.5924 14.5136C13.5924 13.9613 14.0401 13.5136 14.5924 13.5136H20.5493C21.1016 13.5136 21.5493 13.9613 21.5493 14.5136V20.4706C21.5493 21.0228 21.1016 21.4706 20.5493 21.4706H14.5924C14.0401 21.4706 13.5924 21.0228 13.5924 20.4706V14.5136ZM15.5924 15.5136V19.4706H19.5493V15.5136H15.5924Z" fill="#808089"/>
  <path fill-rule="evenodd" clip-rule="evenodd" d="M2.52942 14.5136C2.52942 13.9613 2.97713 13.5136 3.52942 13.5136H9.48639C10.0387 13.5136 10.4864 13.9613 10.4864 14.5136V20.4706C10.4864 21.0228 10.0387 21.4706 9.48639 21.4706H3.52942C2.97713 21.4706 2.52942 21.0228 2.52942 20.4706V14.5136ZM4.52942 15.5136V19.4706H8.48639V15.5136H4.52942Z" fill="#808089"/>
</svg>
