<svg width="24" height="24" viewBox="0 0 24 24" fill="none"
  xmlns="http://www.w3.org/2000/svg">
  <path fill-rule="evenodd" clip-rule="evenodd" d="M11.394 3.20457C11.752 2.93181 12.248 2.93181 12.606 3.20457L20.606 9.29981C20.8543 9.48895 21 9.78315 21 10.0952V20C21 20.5523 20.5523 21 20 21H14.4C13.8477 21 13.4 20.5523 13.4 20V15.6667H10.6V20C10.6 20.5523 10.1523 21 9.6 21H4C3.44772 21 3 20.5523 3 20V10.0952C3 9.78315 3.14571 9.48895 3.39396 9.29981L11.394 3.20457ZM5 10.5905V19H8.6V14.6667C8.6 14.1144 9.04772 13.6667 9.6 13.6667H14.4C14.9523 13.6667 15.4 14.1144 15.4 14.6667V19H19V10.5905L12 5.25718L5 10.5905Z" fill="#808089"/>
</svg>
