<svg width="25" height="24" viewBox="0 0 25 24" fill="none"
  xmlns="http://www.w3.org/2000/svg">
  <g clip-path="url(#clip0)">
    <path fill-rule="evenodd" clip-rule="evenodd" d="M8.5 10.2C8.5 7.94229 10.2312 6 12.5 6C14.7688 6 16.5 7.94229 16.5 10.2V11.8C16.5 14.0577 14.7688 16 12.5 16C10.2312 16 8.5 14.0577 8.5 11.8V10.2ZM12.5 8C11.4553 8 10.5 8.92331 10.5 10.2V11.8C10.5 13.0767 11.4553 14 12.5 14C13.5447 14 14.5 13.0767 14.5 11.8V10.2C14.5 8.92331 13.5447 8 12.5 8Z" fill="#1A94FF"/>
    <path fill-rule="evenodd" clip-rule="evenodd" d="M12.5 2C6.97715 2 2.5 6.47715 2.5 12C2.5 17.5228 6.97715 22 12.5 22C18.0228 22 22.5 17.5228 22.5 12C22.5 6.47715 18.0228 2 12.5 2ZM4.5 12C4.5 7.58172 8.08172 4 12.5 4C16.9183 4 20.5 7.58172 20.5 12C20.5 14.3905 19.4515 16.5362 17.7892 18.0021C16.7119 17.3714 15.2569 17 13.7285 17H11.2699C9.73537 17 8.28878 17.3594 7.20746 17.9992C5.54713 16.5333 4.5 14.389 4.5 12ZM9.21113 19.2949C10.2143 19.7479 11.3277 20 12.5 20C13.6688 20 14.7791 19.7493 15.78 19.2988C15.1864 19.1146 14.4859 19 13.7285 19H11.2699C10.5011 19 9.80113 19.1121 9.21113 19.2949Z" fill="#1A94FF"/>
  </g>
  <defs>
    <clipPath id="clip0">
      <rect width="20" height="20" fill="white" transform="translate(2.5 2)"/>
    </clipPath>
  </defs>
</svg>
