<svg width="16" height="16" viewBox="0 0 16 16" fill="none" xmlns="http://www.w3.org/2000/svg">
<g clip-path="url(#clip0_2731_74375)">
<path d="M8.43156 1.61356L10.231 5.43206L14.2545 6.04545C14.3433 6.05887 14.4268 6.0981 14.4955 6.15868C14.5642 6.21927 14.6153 6.29879 14.6431 6.38824C14.6708 6.4777 14.6741 6.57351 14.6526 6.66482C14.6311 6.75614 14.5855 6.83931 14.5212 6.90491L11.6092 9.87486L12.2965 14.0728C12.3117 14.1655 12.3018 14.2608 12.2679 14.348C12.2341 14.4351 12.1777 14.5106 12.105 14.5659C12.0324 14.6212 11.9464 14.6541 11.8568 14.6609C11.7673 14.6677 11.6777 14.6481 11.5982 14.6043L7.99993 12.6254L4.40112 14.6062C4.32155 14.6497 4.23196 14.6691 4.14242 14.6622C4.05289 14.6553 3.96699 14.6223 3.89439 14.567C3.82179 14.5117 3.76538 14.4362 3.73152 14.3491C3.69767 14.262 3.68771 14.1667 3.70277 14.074L4.39013 9.87849L1.4781 6.90855C1.41375 6.84294 1.36823 6.75977 1.34669 6.66846C1.32514 6.57714 1.32844 6.48133 1.3562 6.39188C1.38396 6.30242 1.43508 6.2229 1.50376 6.16232C1.57245 6.10173 1.65596 6.06251 1.74483 6.04908L5.76832 5.43267L7.56773 1.61416C7.60753 1.52981 7.66905 1.45879 7.74533 1.40911C7.82162 1.35943 7.90964 1.33307 7.99946 1.33301C8.08929 1.33294 8.17734 1.35918 8.25369 1.40875C8.33004 1.45832 8.39165 1.52926 8.43156 1.61356V1.61356Z" fill="#DDDDE3"/>
</g>
<defs>
<clipPath id="clip0_2731_74375">
<rect width="13.334" height="13.3306" fill="white" transform="translate(1.33264 1.33301)"/>
</clipPath>
</defs>
</svg>
