<svg width="16" height="17" viewBox="0 0 16 17" fill="none" xmlns="http://www.w3.org/2000/svg">
<g clip-path="url(#clip0_1824:22057)">
<path d="M8.43156 1.94705L10.231 5.76556L14.2545 6.37894C14.3433 6.39237 14.4268 6.43159 14.4955 6.49218C14.5642 6.55276 14.6153 6.63228 14.6431 6.72174C14.6708 6.81119 14.6741 6.907 14.6526 6.99832C14.6311 7.08963 14.5855 7.1728 14.5212 7.23841L11.6092 10.2084L12.2965 14.4063C12.3117 14.499 12.3018 14.5943 12.2679 14.6815C12.2341 14.7686 12.1777 14.8441 12.105 14.8994C12.0324 14.9547 11.9464 14.9876 11.8568 14.9944C11.7673 15.0012 11.6777 14.9816 11.5982 14.9378L7.99993 12.9589L4.40112 14.9397C4.32155 14.9832 4.23196 15.0026 4.14242 14.9957C4.05289 14.9888 3.96698 14.9558 3.89439 14.9005C3.82179 14.8452 3.76538 14.7697 3.73152 14.6826C3.69767 14.5955 3.68771 14.5002 3.70277 14.4075L4.39013 10.212L1.4781 7.24204C1.41375 7.17644 1.36823 7.09327 1.34669 7.00195C1.32514 6.91064 1.32844 6.81483 1.3562 6.72537C1.38396 6.63592 1.43508 6.5564 1.50376 6.49581C1.57245 6.43523 1.65596 6.396 1.74483 6.38258L5.76832 5.76616L7.56773 1.94766C7.60753 1.86331 7.66905 1.79228 7.74533 1.7426C7.82162 1.69292 7.90964 1.66657 7.99946 1.6665C8.08929 1.66644 8.17734 1.69268 8.25369 1.74225C8.33004 1.79182 8.39165 1.86276 8.43156 1.94705Z" fill="#FFC400"/>
</g>
<defs>
<clipPath id="clip0_1824:22057">
<rect width="13.334" height="13.3306" fill="white" transform="translate(1.33264 1.6665)"/>
</clipPath>
</defs>
</svg>
