<svg width="8" height="8" viewBox="0 0 8 8" fill="none" xmlns="http://www.w3.org/2000/svg">
<path d="M4.24866 0.48803L5.28533 2.58803L7.60333 2.92536C7.65453 2.93275 7.70264 2.95432 7.74221 2.98764C7.78178 3.02096 7.81123 3.06469 7.82722 3.11389C7.84322 3.16308 7.84512 3.21577 7.8327 3.26599C7.82029 3.31621 7.79406 3.36195 7.75699 3.39803L6.07933 5.03136L6.47533 7.34003C6.48406 7.39102 6.47836 7.44344 6.45886 7.49136C6.43936 7.53929 6.40685 7.5808 6.36499 7.61121C6.32314 7.64162 6.27361 7.65972 6.22201 7.66346C6.17041 7.66719 6.11879 7.65642 6.07299 7.63236L3.99999 6.54403L1.92666 7.63336C1.88082 7.65732 1.8292 7.66799 1.77762 7.66419C1.72604 7.66038 1.67655 7.64224 1.63472 7.61182C1.5929 7.58139 1.5604 7.53989 1.54089 7.49199C1.52139 7.44408 1.51565 7.39169 1.52433 7.3407L1.92033 5.03336L0.24266 3.40003C0.20559 3.36395 0.179363 3.31821 0.166951 3.26799C0.154539 3.21777 0.156437 3.16508 0.172431 3.11589C0.188425 3.06669 0.217875 3.02296 0.257445 2.98964C0.297016 2.95632 0.345126 2.93475 0.396327 2.92736L2.71433 2.58836L3.75099 0.488364C3.77393 0.441972 3.80937 0.402913 3.85331 0.375592C3.89726 0.348271 3.94797 0.333775 3.99972 0.33374C4.05147 0.333706 4.1022 0.348133 4.14619 0.375396C4.19017 0.402658 4.22567 0.44167 4.24866 0.48803Z" fill="#C4C4CF"/>
</svg>
