<svg width="56" height="16" viewBox="0 0 56 16" fill="none" xmlns="http://www.w3.org/2000/svg">
<path fill-rule="evenodd" clip-rule="evenodd" d="M25.4531 9.48066V15.1118C25.4531 15.3478 25.3691 15.5559 25.2038 15.7322C25.0358 15.9098 24.8318 16 24.5944 16C24.3584 16 24.1531 15.9125 23.9864 15.7402C23.8198 15.5678 23.7358 15.3571 23.7358 15.1118V6.77776C23.7158 6.46757 23.8198 6.22366 24.0491 6.05928C24.2691 5.90154 24.4971 5.83923 24.7291 5.87768C24.9598 5.91479 25.1464 6.03277 25.2824 6.22631L29.5971 12.3745V6.78439C29.5971 6.54843 29.6811 6.34296 29.8478 6.17063C30.0144 5.99963 30.2171 5.91214 30.4491 5.91214C30.6798 5.91214 30.8838 5.99831 31.0558 6.17063C31.2278 6.34164 31.3144 6.54843 31.3144 6.78439V15.1118C31.3144 15.3584 31.2278 15.5692 31.0558 15.7415C30.8838 15.9125 30.6758 16 30.4344 16C30.1904 16 29.9771 15.8899 29.8064 15.6832C29.7624 15.6368 29.7331 15.6023 29.7264 15.5851L25.4531 9.48066Z" fill="#FF424E"/>
<path fill-rule="evenodd" clip-rule="evenodd" d="M52.0265 15.9403C52.0279 15.9403 52.0292 15.939 52.0292 15.939C52.0292 15.939 52.0292 15.939 52.0279 15.9403H52.0265ZM47.0255 15.943H46.9763C46.9696 15.943 46.9403 15.9536 46.8977 15.9748L46.8511 15.9854C46.7859 15.996 46.738 16 46.6781 16C46.6169 16 46.5689 15.996 46.5317 15.9854L46.4718 15.9801C46.4092 15.9589 46.3759 15.9469 46.3613 15.939C46.3546 15.9363 46.34 15.9297 46.32 15.9204C46.2907 15.9098 46.2588 15.8886 46.2189 15.8568L46.1789 15.8356C46.1363 15.8024 46.0937 15.7627 46.0525 15.7149C46.0165 15.6725 45.9899 15.6434 45.9726 15.6261L45.9447 15.597C45.9367 15.5572 45.9273 15.5386 45.918 15.5161C45.9087 15.4936 45.9021 15.4803 45.9034 15.4829L45.8834 15.4511L42.4611 7.08595C42.3772 6.86191 42.3799 6.63654 42.4678 6.41382C42.5569 6.18713 42.714 6.02804 42.9297 5.9432C43.14 5.8451 43.3609 5.84244 43.5859 5.93392C43.8122 6.02672 43.9679 6.18845 44.0518 6.4125L46.6848 12.8262L48.3859 8.65028C48.531 8.28704 48.8066 8.10011 49.1952 8.10011C49.5826 8.10011 49.8621 8.28704 50.0179 8.64895L51.7191 12.8262L54.3387 6.41117C54.4332 6.18713 54.5903 6.02672 54.8099 5.93524C55.0296 5.84377 55.2518 5.84377 55.4715 5.93524C55.6911 6.02672 55.8482 6.1911 55.936 6.42178C56.0239 6.65112 56.0212 6.87649 55.9281 7.0886L52.5257 15.4365C52.5044 15.5267 52.4498 15.6115 52.366 15.6937C52.362 15.7057 52.358 15.7163 52.3513 15.7295L52.3367 15.7587C52.2808 15.7879 52.2568 15.8051 52.2369 15.8263L52.2062 15.8568L52.0824 15.9257L52.0252 15.943C52.0039 15.9509 51.972 15.9629 51.9187 15.9801L51.8735 15.9854C51.8349 15.996 51.7869 16 51.727 16C51.6658 16 51.6179 15.996 51.5793 15.9854L51.5194 15.9801C51.4582 15.9589 51.4249 15.9469 51.4089 15.939C51.3423 15.9244 51.2997 15.8952 51.2478 15.8449C51.144 15.7786 51.0761 15.707 51.0309 15.6248C50.9803 15.5864 50.9483 15.524 50.931 15.4511L49.2019 11.2301L47.4754 15.4432C47.4635 15.4776 47.4435 15.524 47.4142 15.585L47.3184 15.6911C47.3144 15.703 47.309 15.7163 47.3037 15.7295L47.2891 15.7587C47.2531 15.7773 47.2318 15.7958 47.2012 15.8263L47.1719 15.8568L47.0255 15.943Z" fill="#FF424E"/>
<path fill-rule="evenodd" clip-rule="evenodd" d="M37.2251 16C36.0187 16 34.8508 15.5572 33.9361 14.7539L33.3833 14.2687L33.5795 14.3389L34.0753 14.5166C34.6162 14.7101 35.1756 14.7525 35.7443 14.6438L35.7947 14.6412L35.8212 14.6518C36.5305 14.9262 37.3033 14.9872 38.0457 14.8268C39.3912 14.5364 40.461 13.5833 40.9065 12.2749L40.9926 12.0243L41.0377 12.084L41.149 12.2338C41.1716 12.259 41.1742 12.2629 41.1809 12.2709C41.3678 12.5228 41.5269 12.8131 41.6687 13.1604L41.6859 13.2028L41.6846 13.236L41.6634 13.2771C40.9807 14.6186 39.7452 15.5705 38.275 15.8873C37.929 15.9629 37.5764 16 37.2251 16ZM33.85 13.8577C33.6816 13.8577 33.5066 13.8484 33.329 13.8285L33.2852 13.8232L33.2574 13.8073L33.2309 13.7715C32.8133 13.2042 32.5256 12.5678 32.3772 11.8825C31.9158 9.75479 32.93 7.53432 34.8416 6.48439L35.4779 6.13442L35.3466 6.2935L35.0179 6.6965C34.7315 7.04647 34.5261 7.45345 34.4081 7.9055C34.3869 7.98769 34.3749 8.06193 34.3564 8.20245L34.3431 8.25282L34.3232 8.27536C33.4987 9.2126 33.1779 10.4441 33.439 11.6545C33.5968 12.3849 33.9626 13.0504 34.4956 13.5806L34.6944 13.7782L34.6162 13.7901L34.416 13.8179C34.2331 13.8445 34.0422 13.8577 33.85 13.8577ZM41.9961 11.9474C41.8941 11.4675 41.6859 11.0261 41.3771 10.6377C41.3651 10.6258 41.3651 10.6258 41.3612 10.6204C41.3452 10.6045 41.3373 10.5979 41.3293 10.5873L41.3002 10.5409L41.2975 10.5091C41.2803 10.3182 41.2578 10.1618 41.2273 10.0159C40.8428 8.23957 39.2454 6.95103 37.4279 6.95103C37.1522 6.95103 36.8738 6.98152 36.602 7.03985C36.3767 7.08757 36.1447 7.16181 35.914 7.25858L35.6476 7.36993L35.6688 7.29172L35.7245 7.09287C35.7311 7.06371 35.7337 7.0531 35.7351 7.04515C35.8305 6.72301 35.975 6.40751 36.1805 6.07079L36.203 6.035L36.2269 6.01644L36.3091 5.99655C36.3343 5.9886 36.3528 5.9833 36.3727 5.97932C36.72 5.90376 37.0753 5.86664 37.4279 5.86664C39.7531 5.86664 41.7973 7.51443 42.2891 9.78661C42.4442 10.4998 42.4376 11.2289 42.2692 11.9514L42.1261 12.5705L41.9961 11.9474Z" fill="#FF424E"/>
<path d="M8.94613 0C7.58347 0 6.47813 1.10533 6.47813 2.46933C6.47813 3.832 7.58347 4.93867 8.94613 4.93867C10.3088 4.93867 11.4155 3.832 11.4155 2.46933C11.4155 1.10533 10.3088 0 8.94613 0ZM17.6373 5.86667C18.176 5.86667 18.6867 6.27332 18.6867 6.87474C18.6867 7.23796 18.46 7.53274 17.992 7.99467L15.312 10.5977L18.588 13.9694C18.928 14.3063 19.1827 14.6142 19.1827 15.0327C19.1827 15.6921 18.6587 16 18.0773 16C17.6667 16 17.3973 15.7618 17 15.342L13.3267 11.4229V14.9919C13.3267 15.5381 12.9013 16 12.264 16C11.6533 16 11.2 15.6078 11.2 14.9919V6.90237C11.2 6.32859 11.6253 5.86667 12.264 5.86667C12.8733 5.86667 13.3267 6.25884 13.3267 6.90237V9.92527L16.816 6.25884C16.9707 6.09039 17.24 5.86667 17.6373 5.86667ZM6.18267 5.86667C6.792 5.86667 7.14667 6.34706 7.14667 6.84072C7.14667 7.32111 6.86267 7.81477 6.18267 7.81477H4.63733V14.8999C4.63733 15.6059 4.184 16 3.57333 16C2.96267 16 2.50933 15.6059 2.50933 14.8999V7.81477H0.964C0.282667 7.81477 0 7.32111 0 6.84072C0 6.34706 0.354667 5.86667 0.964 5.86667H6.18267ZM21.3307 5.86667C21.94 5.86667 22.3933 6.25884 22.3933 6.95896V14.909C22.3933 15.6078 21.94 16 21.3307 16C20.7213 16 20.2667 15.6078 20.2667 14.909V6.95896C20.2667 6.25884 20.7213 5.86667 21.3307 5.86667ZM9.06267 5.86667C9.67333 5.86667 10.1267 6.25884 10.1267 6.95896V14.909C10.1267 15.6078 9.67333 16 9.06267 16C8.45333 16 8 15.6078 8 14.909V6.95896C8 6.25884 8.45333 5.86667 9.06267 5.86667ZM21.2805 0C22.6445 0 23.7499 1.10533 23.7499 2.46933C23.7499 3.832 22.6445 4.93867 21.2805 4.93867C19.9179 4.93867 18.8112 3.832 18.8112 2.46933C18.8112 1.10533 19.9179 0 21.2805 0ZM10.7635 2.10267C10.8115 2.26933 10.8381 2.44133 10.8381 2.62133C10.8381 3.664 9.99147 4.51067 8.94613 4.51067C7.9008 4.51067 7.0568 3.664 7.0568 2.62133C7.0568 2.44133 7.08213 2.26933 7.13013 2.10267H10.7635ZM23.0965 2.10267H19.4632C19.4165 2.26933 19.3899 2.44133 19.3899 2.62133C19.3899 3.664 20.2365 4.51067 21.2805 4.51067C22.3259 4.51067 23.1712 3.664 23.1712 2.62133C23.1712 2.44133 23.1445 2.26933 23.0965 2.10267Z" fill="#1BA8FF"/>
</svg>
