<svg width="20" height="20" viewBox="0 0 20 20" fill="none" xmlns="http://www.w3.org/2000/svg">
<path fill-rule="evenodd" clip-rule="evenodd" d="M17.3808 1.23815L19.8808 5.40482C19.9588 5.53441 20 5.68277 20 5.83398C20.0018 6.47815 19.8165 7.10898 19.4666 7.64986C19.1167 8.19075 18.6174 8.61842 18.0291 8.88095C17.4409 9.14348 16.7891 9.22958 16.1528 9.12878C15.5166 9.02799 14.9233 8.74465 14.445 8.31315C13.8357 8.86477 13.0432 9.17024 12.2213 9.17024C11.3994 9.17024 10.6068 8.86477 9.9975 8.31315C9.38847 8.8636 8.59677 9.16836 7.77584 9.16836C6.95491 9.16836 6.16321 8.8636 5.55417 8.31315C4.94336 8.86491 4.14896 9.16942 3.32584 9.16732H3.31917C2.4371 9.16511 1.59199 8.81276 0.969597 8.18771C0.347204 7.56266 -0.00154397 6.71606 5.13874e-06 5.83398C5.29978e-05 5.68277 0.0412467 5.53441 0.119172 5.40482L2.61917 1.23815C2.69323 1.11489 2.79791 1.01289 2.92306 0.942069C3.0482 0.871247 3.18954 0.834012 3.33334 0.833984H16.6667C16.8105 0.834012 16.9518 0.871247 17.077 0.942069C17.2021 1.01289 17.3068 1.11489 17.3808 1.23815ZM14.4475 10.3106C15.1412 10.6554 15.9054 10.8346 16.68 10.834C16.955 10.8303 17.2293 10.8041 17.5 10.7557V19.1673C17.5 19.3883 17.4122 19.6003 17.2559 19.7566C17.0996 19.9129 16.8877 20.0006 16.6667 20.0006H11.6667V15.0006H8.33333V20.0006H3.33333C3.11232 20.0006 2.90036 19.9129 2.74408 19.7566C2.5878 19.6003 2.5 19.3883 2.5 19.1673V10.759C2.7728 10.8063 3.04898 10.8313 3.32583 10.834C4.09892 10.8353 4.86174 10.657 5.55417 10.3132C5.75887 10.4145 5.97018 10.5019 6.18667 10.5748C6.80604 10.7854 7.46101 10.871 8.1137 10.8268C8.76639 10.7826 9.40384 10.6095 9.98917 10.3173L9.99833 10.3132C10.2033 10.4145 10.4149 10.5019 10.6317 10.5748C11.2513 10.7849 11.9064 10.8702 12.5592 10.8259C13.2119 10.7816 13.8495 10.6084 14.435 10.3165L14.4475 10.3106Z" fill="#C4C4CF"/>
</svg>
