<svg width="20" height="20" viewBox="0 0 20 20" fill="none"
  xmlns="http://www.w3.org/2000/svg">
  <g clip-path="url(#clip0_611_86491)">
    <path fill-rule="evenodd" clip-rule="evenodd" d="M1.66669 2.50008C1.66669 2.03984 2.03978 1.66675 2.50002 1.66675H16.7857C17.246 1.66675 17.6191 2.03984 17.6191 2.50008V4.64294C17.6191 4.86395 17.5313 5.07591 17.375 5.23219L11.9048 10.7024V16.0715C11.9048 16.3872 11.7264 16.6757 11.4441 16.8169L8.58698 18.2454C8.32866 18.3746 8.02188 18.3608 7.7762 18.209C7.53052 18.0571 7.38097 17.7889 7.38097 17.5001V10.7024L1.91076 5.23219C1.75448 5.07591 1.66669 4.86395 1.66669 4.64294V2.50008ZM3.33335 3.33341V4.29776L8.80356 9.76797C8.95984 9.92425 9.04764 10.1362 9.04764 10.3572V16.1517L10.2381 15.5565V10.3572C10.2381 10.1362 10.3259 9.92425 10.4822 9.76797L15.9524 4.29776V3.33341H3.33335Z" fill="#808089"/>
  </g>
  <defs>
    <clipPath id="clip0_611_86491">
      <rect width="16.6667" height="16.6667" fill="white" transform="translate(1.66669 1.66675)"/>
    </clipPath>
  </defs>
</svg>
