<svg width="24" height="24" viewBox="0 0 24 24" fill="none"
  xmlns="http://www.w3.org/2000/svg">
  <path fill-rule="evenodd" clip-rule="evenodd" d="M6.79289 2.29289C7.18342 1.90237 7.81658 1.90237 8.20711 2.29289L12.7071 6.79289C13.0976 7.18342 13.0976 7.81658 12.7071 8.20711C12.3166 8.59763 11.6834 8.59763 11.2929 8.20711L8.5 5.41421L8.5 21C8.5 21.5523 8.05228 22 7.5 22C6.94771 22 6.5 21.5523 6.5 21L6.5 5.41421L3.70711 8.20711C3.31658 8.59763 2.68342 8.59763 2.29289 8.20711C1.90237 7.81658 1.90237 7.18342 2.29289 6.79289L6.79289 2.29289ZM16.5 2C17.0523 2 17.5 2.44772 17.5 3V18.5858L20.2929 15.7929C20.6834 15.4024 21.3166 15.4024 21.7071 15.7929C22.0976 16.1834 22.0976 16.8166 21.7071 17.2071L17.2071 21.7071C16.8166 22.0976 16.1834 22.0976 15.7929 21.7071L11.2929 17.2071C10.9024 16.8166 10.9024 16.1834 11.2929 15.7929C11.6834 15.4024 12.3166 15.4024 12.7071 15.7929L15.5 18.5858V3C15.5 2.44772 15.9477 2 16.5 2Z" fill="#1A94FF"/>
</svg>
